<svg width="20" height="20" viewBox="0 0 20 20" fill="none" xmlns="http://www.w3.org/2000/svg">
<rect width="20" height="20" rx="10" fill="#448076"/>
<path d="M7.16348 9.3802C6.91807 9.10573 6.49662 9.08217 6.22214 9.32758C5.94767 9.57299 5.92411 9.99445 6.16952 10.2689L7.16348 9.3802ZM9.80376 13.3333L9.30678 13.7777C9.44769 13.9353 9.65499 14.0167 9.86548 13.9971C10.076 13.9776 10.2647 13.8593 10.3741 13.6784L9.80376 13.3333ZM13.9036 7.84511C14.0942 7.53009 13.9933 7.12021 13.6783 6.92961C13.3633 6.73901 12.9534 6.83987 12.7628 7.15489L13.9036 7.84511ZM6.16952 10.2689L9.30678 13.7777L10.3007 12.889L7.16348 9.3802L6.16952 10.2689ZM10.3741 13.6784L13.9036 7.84511L12.7628 7.15489L9.23337 12.9882L10.3741 13.6784Z" fill="white"/>
</svg>
