<svg width="24" height="24" viewBox="0 0 24 24" fill="none" xmlns="http://www.w3.org/2000/svg">
<rect width="24" height="24" rx="12" fill="#448076"/>
<path d="M8.74547 11.1229C8.37735 10.7112 7.74517 10.6759 7.33346 11.044C6.92175 11.4121 6.88641 12.0443 7.25453 12.456L8.74547 11.1229ZM11.7647 16L11.0192 16.6665C11.2306 16.9029 11.5416 17.0251 11.8573 16.9957C12.173 16.9663 12.4561 16.789 12.6203 16.5177L11.7647 16ZM16.8556 9.51766C17.1415 9.04514 16.9902 8.43031 16.5177 8.14442C16.0451 7.85852 15.4303 8.00981 15.1444 8.48234L16.8556 9.51766ZM7.25453 12.456L11.0192 16.6665L12.5102 15.3335L8.74547 11.1229L7.25453 12.456ZM12.6203 16.5177L16.8556 9.51766L15.1444 8.48234L10.9091 15.4823L12.6203 16.5177Z" fill="#F4F2F0"/>
</svg>
