<svg width="90" height="183" viewBox="0 0 90 183" fill="none" xmlns="http://www.w3.org/2000/svg">
<path d="M28.543 55.2101C22.9554 25.8139 8.7646 11.7582 6.85492 12.0681C4.95167 12.378 0.122816 32.3413 6.50128 58.5584C12.8797 84.7754 23.2833 92.8569 23.2833 92.8569L29.6425 91.8271C29.6425 91.8271 34.1305 84.6069 28.543 55.2101Z" fill="#79C250"/>
<path d="M9.2083 19.9706C9.2083 19.9706 13.0019 36.144 18.4031 56.9596C23.8042 77.7758 27.1992 89.4349 26.5047 89.8733C25.8167 90.3116 23.8428 80.7129 20.8722 68.9854C17.908 57.2579 13.6257 40.7281 11.9025 34.0327C10.1728 27.3374 7.34363 19.835 9.2083 19.9706Z" fill="#457F30"/>
<path d="M41.5568 55.2101C47.138 25.8139 61.3352 11.7582 63.2385 12.0681C65.1482 12.378 69.9706 32.3413 63.5985 58.5584C57.2201 84.7754 46.8165 92.8569 46.8165 92.8569L40.4573 91.8271C40.4573 91.8271 35.9693 84.6069 41.5568 55.2101Z" fill="#374D2A"/>
<path d="M60.8855 19.9706C60.8855 19.9706 57.0983 36.144 51.6972 56.9596C46.2961 77.7758 42.9011 89.4349 43.5955 89.8733C44.2835 90.3116 46.2575 80.7129 49.2217 68.9854C52.1923 57.2579 56.4681 40.7281 58.1978 34.0327C59.921 27.3374 62.7566 19.835 60.8855 19.9706Z" fill="#79C250"/>
<path d="M30.3304 0.000740051C28.5622 0.162155 22.7109 27.1953 24.865 56.1718C27.0126 85.1445 30.3304 93.4106 30.3304 93.4106H39.3322C39.3322 93.4106 43.9939 85.8689 43.9939 53.5892C43.9939 21.307 32.0986 -0.160667 30.3304 0.000740051Z" fill="#457F30"/>
<path d="M31.3462 10.4925C31.3462 10.4925 33.0437 24.8646 34.1946 52.4594C35.3456 80.0581 36.31 91.0341 35.5063 91.1955C34.7026 91.3569 34.1946 66.4996 34.1946 66.4996C34.1946 66.4996 32.465 38.8428 32.5293 31.6374C32.5936 24.4255 30.1631 10.8153 31.3462 10.4925Z" fill="#374D2A"/>
<path d="M65.4893 147.072C65.5793 138.861 65.6372 130.17 65.65 122.142C70.3889 122.294 78.1047 124.179 78.1047 134.864C78.1047 145.668 70.2152 147.152 65.4893 147.072ZM65.6435 114.526C65.605 101.384 65.3863 91.4634 64.8591 91.0231C63.2516 89.6834 0.88158 91.0231 0.88158 91.0231C-0.725895 92.5888 0.232161 181.885 0.88158 182.613C1.531 183.341 64.5376 182.969 64.8591 182.105C64.9748 181.801 65.2063 170.587 65.3864 156.129C72.8193 156.194 90 154.022 90 132.517C90 111.254 73.2051 112.768 65.6435 114.526Z" fill="#E8DFD6"/>
<path d="M87.428 122.348C84.7531 117.422 81.3967 117.425 80.4323 120.007C80.4323 120.007 82.2841 122.671 83.4865 125.173C84.6953 127.675 85.1775 130.257 86.6242 130.176C88.071 130.096 90.0964 127.275 87.428 122.348Z" fill="white"/>
</svg>
