<svg width="147" height="62" viewBox="0 0 147 62" fill="none" xmlns="http://www.w3.org/2000/svg">
<path d="M100.932 2.29328L51.1175 0.325471C46.5661 0.145677 42.7245 3.76186 42.5412 8.40211L41.4209 36.762C41.2375 41.4039 44.782 45.3102 49.3334 45.49L64.0568 46.0716C66.41 50.483 71.7783 60.1703 73.5664 60.241C75.4486 60.3153 82.0841 50.5698 84.5238 46.8801L99.1483 47.4578C103.701 47.6377 107.541 44.0231 107.725 39.3812L108.845 11.0213C109.028 6.38102 105.486 2.47314 100.932 2.29328Z" fill="#FFDE2F"/>
<path d="M87.0959 17.2333C82.9806 12.0083 75.5941 20.3122 75.5941 20.3122C75.5941 20.3122 69.46 10.7517 64.182 18.0824C59.1822 25.0223 74.6964 34.2489 74.6964 34.2489C74.6964 34.2489 93.6471 25.5587 87.0959 17.2333" fill="#448076"/>
<path d="M32.101 10.0032C20.8696 8.44276 16.5938 1.51953 16.5938 1.51953" stroke="#FFDE2F" stroke-width="2" stroke-linecap="round"/>
<path d="M118.589 36.5525C129.685 38.8929 133.467 46.0977 133.467 46.0977" stroke="#FFDE2F" stroke-width="2" stroke-linecap="round"/>
<path d="M30.6507 22.1352C18.103 19.0095 0.999452 24.3447 0.999452 24.3447" stroke="#FFDE2F" stroke-width="2" stroke-linecap="round"/>
<path d="M17.5698 44.4513C21.7306 36.6402 30.0988 32.9583 30.0988 32.9583" stroke="#FFDE2F" stroke-width="2" stroke-linecap="round"/>
<path d="M119.154 23.3936C134.066 27.3782 145.874 25.2628 145.874 25.2628" stroke="#FFDE2F" stroke-width="2" stroke-linecap="round"/>
<path d="M119.939 12.1565C129.94 11.711 139.257 5.5097 139.257 5.5097" stroke="#FFDE2F" stroke-width="2" stroke-linecap="round"/>
</svg>
