<svg width="385" height="343" viewBox="0 0 401 362" fill="none" xmlns="http://www.w3.org/2000/svg">
<path d="M246.503 137.009C246.503 12.9518 134.876 14.2903 134.876 14.2903C134.876 14.2903 0 -1.90277 0 138.318C0 251.387 81.1055 261.806 117.528 260.787C115.54 264.08 112.939 267.909 110.532 269.914C105.797 273.86 99.6895 276.227 100.372 278.595C101.018 280.826 133.914 292.124 157.526 256.598C190.149 249.748 246.503 225.164 246.503 137.009Z" fill="#448076"/>
<path d="M357.775 324.923C345.747 332.924 332.515 336.608 320.99 338.167C322.055 339.768 323.208 342.447 322.238 345.794C322.237 345.796 322.236 345.798 322.236 345.8C322.235 345.802 322.235 345.804 322.234 345.806C321.698 347.645 320.661 348.81 320.217 349.271C319.672 349.84 319.137 350.244 318.769 350.5C318.023 351.017 317.262 351.4 316.646 351.675C315.368 352.247 313.851 352.735 312.216 353.11C308.913 353.868 304.542 354.301 299.605 353.718C290.104 352.595 278.964 347.747 269.688 335.346C257.697 332.445 242.086 326.353 229.017 313.46C214.574 299.212 204 277.408 204 244.761C204 221.872 209.192 204.216 217.404 190.7C225.609 177.197 236.552 168.282 247.366 162.436C258.132 156.615 268.813 153.807 276.742 152.441C280.724 151.755 284.062 151.424 286.44 151.265C287.63 151.185 288.583 151.148 289.262 151.131C289.514 151.125 289.728 151.121 289.903 151.12C290.116 151.098 290.392 151.072 290.727 151.044C291.517 150.977 292.638 150.896 294.044 150.832C296.853 150.704 300.816 150.642 305.554 150.893C314.98 151.391 327.735 153.142 340.625 158.266C353.572 163.412 366.808 172.03 376.767 186.285C386.743 200.563 393 219.88 393 245.674C393 287.324 377.802 311.6 357.775 324.923ZM308.453 347.95C308.453 347.95 308.449 347.947 308.44 347.94C308.448 347.947 308.453 347.95 308.453 347.95Z" fill="#E8DFD6" stroke="#F4F2F0" stroke-width="16"/>
<path d="M292.1 273.78C290.762 272.545 290.062 270.996 290 269.13C290.062 267.325 290.734 265.806 292.009 264.571C293.282 263.338 294.885 262.721 296.815 262.721C298.867 262.721 300.562 263.353 301.9 264.617C303.238 265.88 303.938 267.446 304 269.311C303.938 271.176 303.272 272.696 301.995 273.87C300.718 275.044 299.115 275.659 297.19 275.721C295.133 275.659 293.438 275.013 292.1 273.78Z" fill="#448076"/>
<rect x="75" y="127.721" width="24" height="24" rx="12" fill="#F4F2F0"/>
<rect x="111" y="127.721" width="24" height="24" rx="12" fill="#F4F2F0"/>
<rect x="147" y="127.721" width="24" height="24" rx="12" fill="#F4F2F0"/>
<path d="M295.428 257.174C307.989 261.88 307.894 205.584 296.6 206.285C286.844 206.673 287.876 254.344 295.428 257.174Z" fill="#448076"/>
<path d="M130.332 0.22718C129.231 0.320192 128.414 1.28784 128.507 2.38849C128.6 3.48914 129.568 4.30599 130.668 4.21297L130.332 0.22718ZM255 118.72C255 119.825 255.895 120.72 257 120.72C258.105 120.72 259 119.825 259 118.72H255ZM130.668 4.21297C147.948 2.75269 179.129 8.6492 205.961 26.3641C232.684 44.0076 255 73.2999 255 118.72H259C259 71.7403 235.816 41.2825 208.164 23.026C180.621 4.84095 148.552 -1.31254 130.332 0.22718L130.668 4.21297Z" fill="#33765F"/>
</svg>
