<svg width="120" height="120" viewBox="0 0 120 120" fill="none" xmlns="http://www.w3.org/2000/svg">
<path d="M0 25.6C0 16.6392 0 12.1587 1.7439 8.73615C3.27787 5.72556 5.72556 3.27787 8.73615 1.7439C12.1587 0 16.6392 0 25.6 0H94.4C103.361 0 107.841 0 111.264 1.7439C114.274 3.27787 116.722 5.72556 118.256 8.73615C120 12.1587 120 16.6392 120 25.6V94.4C120 103.361 120 107.841 118.256 111.264C116.722 114.274 114.274 116.722 111.264 118.256C107.841 120 103.361 120 94.4 120H25.6C16.6392 120 12.1587 120 8.73615 118.256C5.72556 116.722 3.27787 114.274 1.7439 111.264C0 107.841 0 103.361 0 94.4V25.6Z" fill="#F4F2F0"/>
<path d="M87.8729 63.3706L87.6294 70.4271C87.6294 70.4271 96.6352 70.9156 94.9307 80.1646C93.2274 89.4141 83.2475 88.6825 82.2748 88.927C81.302 89.1706 80.0845 95.985 80.0845 95.985C86.4131 97.6885 101.503 95.4993 103.207 79.678C104.911 63.8564 87.8729 63.3706 87.8729 63.3706Z" fill="#96242C"/>
<path d="M88.1802 54.3512C86.643 53.4289 23.0004 54.3512 23.0004 54.3512C23.0004 54.3512 10.7024 110 54.0531 110C97.4038 110 89.7175 55.2736 88.1802 54.3512Z" fill="#96242C"/>
<path d="M39.7571 98.9313C33.9156 95.0881 32.3783 90.1689 32.3783 90.1689C28.9963 89.7077 30.3799 94.9344 36.3752 100.776C42.3705 106.618 46.3674 106.003 47.2897 103.851C48.2121 101.698 45.5987 102.774 39.7571 98.9313Z" fill="#7F2229"/>
<path d="M89.564 62.8059C89.564 62.8059 89.7952 68.5712 89.564 70.7233C89.564 70.7233 91.6399 70.9534 91.7936 67.5714C91.9473 64.1894 89.564 62.8059 89.564 62.8059Z" fill="#7F2229"/>
<path d="M84.0301 92.7061C82.4928 95.7806 81.6479 97.0104 81.6479 97.0104C81.6479 97.0104 83.4927 98.0865 85.4911 94.8583C87.4895 91.63 86.336 87.7095 86.336 87.7095C86.336 87.7095 85.5674 89.6316 84.0301 92.7061Z" fill="#7F2229"/>
<path d="M54.9755 19.7107C53.9511 10.8979 46.1627 9.25735 46.5723 12.9468C46.5723 12.9468 51.2861 13.9724 51.2861 19.9161C51.2861 25.8597 38.988 26.4747 39.8083 35.2887C40.6286 44.1027 49.4414 41.2336 49.4414 43.4878C49.4414 45.742 46.3681 47.7909 48.0074 48.6112C49.6468 49.4315 53.7457 48.6112 54.3606 41.8472C54.9755 35.0833 45.1383 36.7226 46.1627 31.3939C47.1872 26.0651 56 28.5235 54.9755 19.7107Z" fill="#D8CCC6"/>
<path d="M61.5354 18.8926C61.5354 18.8926 64.4058 21.7605 63.5855 25.2458C62.7652 28.7311 59.0746 29.9609 60.7151 31.1907C62.3557 32.4205 67.6844 31.1907 68.2993 25.6566C68.9143 20.1224 62.3557 16.433 61.5354 18.8926Z" fill="#D8CCC6"/>
</svg>
