<svg width="165" height="198" viewBox="0 0 165 198" fill="none" xmlns="http://www.w3.org/2000/svg">
<path d="M133.746 104.741L133.259 118.854C133.259 118.854 151.271 119.831 147.862 138.329C144.455 156.828 124.496 155.365 122.55 155.854C120.604 156.341 118.169 169.97 118.169 169.97C130.827 173.377 161.006 168.999 164.415 137.356C167.822 105.713 133.746 104.741 133.746 104.741Z" fill="#96242C"/>
<path d="M134.36 86.7024C131.286 84.8577 4.00085 86.7024 4.00085 86.7024C4.00085 86.7024 -20.5953 198 66.1061 198C152.808 198 137.435 88.5472 134.36 86.7024Z" fill="#96242C"/>
<path d="M37.5143 175.863C25.8311 168.177 22.7566 158.339 22.7566 158.339C15.9927 157.416 18.7597 167.87 30.7503 179.553C42.741 191.236 50.7347 190.006 52.5794 185.702C54.4241 181.397 49.1974 183.55 37.5143 175.863Z" fill="#7F2229"/>
<path d="M137.127 103.612C137.127 103.612 137.59 115.143 137.127 119.447C137.127 119.447 141.279 119.907 141.587 113.144C141.894 106.38 137.127 103.612 137.127 103.612Z" fill="#7F2229"/>
<path d="M126.061 163.413C122.986 169.562 121.296 172.022 121.296 172.022C121.296 172.022 124.986 174.174 128.983 167.717C132.98 161.261 130.672 153.42 130.672 153.42C130.672 153.42 129.135 157.264 126.061 163.413Z" fill="#7F2229"/>
<path d="M67.9516 17.4224C65.9027 -0.203201 50.326 -3.48432 51.145 3.89452C51.145 3.89452 60.5727 5.94584 60.5727 17.8332C60.5727 29.7205 35.9766 30.9503 37.6171 48.5783C39.2577 66.2064 56.8833 60.4681 56.8833 64.9766C56.8833 69.4851 50.7367 73.5828 54.0154 75.2233C57.294 76.8639 65.492 75.2233 66.7218 61.6954C67.9516 48.1676 48.2771 51.4462 50.3259 40.7887C52.3748 30.1312 70.0004 35.048 67.9516 17.4224Z" fill="#E7E5E4"/>
<path d="M81.0713 15.7845C81.0713 15.7845 86.812 21.5203 85.1715 28.4908C83.5309 35.4614 76.1496 37.921 79.4308 40.3806C82.7119 42.8402 93.3694 40.3806 94.5992 29.3124C95.829 18.2441 82.7119 10.8653 81.0713 15.7845Z" fill="#E7E5E4"/>
</svg>
