<svg width="155" height="199" viewBox="0 0 155 199" fill="none" xmlns="http://www.w3.org/2000/svg">
<path d="M64.825 124.391C64.825 124.391 67.3448 103.213 78.7221 81.7245C90.0998 60.232 117.66 44.3037 117.152 43.0392C116.648 41.7748 105.02 48.3484 90.2287 64.5302C75.4339 80.7119 63.2993 101.317 61.7822 124.391" fill="#8F5200"/>
<path d="M138.033 27.0155C136.497 27.9163 135.5 27.0155 135.5 27.0155C135.5 27.0155 134.377 25.4511 136.478 24.503C138.583 23.5548 139.008 25.3089 139.008 25.3089C139.008 25.3089 139.569 26.1148 138.033 27.0155ZM137.207 39.294C137.207 39.294 135.834 40.2895 135.121 38.3458C134.412 36.4021 135.879 35.9281 135.879 35.9281C135.879 35.9281 137.112 35.7384 137.825 37.2555C138.534 38.7725 137.207 39.294 137.207 39.294ZM130.52 54.8909C129.477 55.2701 125.973 54.9857 124.835 48.3487C123.698 41.7117 127.702 41.048 127.702 41.048C129.428 41.048 131.093 41.8065 132.705 47.2109C134.317 52.6153 131.567 54.5116 130.52 54.8909ZM126.493 25.1193C126.493 25.1193 127.733 24.4081 128.916 26.257C130.096 28.1059 129.292 29.1014 129.292 29.1014C129.292 29.1014 127.915 30.4288 126.493 28.1059C125.07 25.783 126.493 25.1193 126.493 25.1193ZM120 55.9338C119.241 56.0287 117.44 56.2183 117.629 52.5205C117.819 48.8228 120 49.1072 120 49.1072C121.088 48.8023 121.517 50.3398 121.706 52.5365C121.896 54.7331 120.758 55.839 120 55.9338ZM107.389 35.7384C107.389 35.7384 103.881 31.1874 111.182 27.8689C118.483 24.5504 120.948 29.5474 120.948 29.5474C120.948 29.5474 122.749 32.6096 116.586 35.7384C110.424 38.8673 108.015 37.0127 107.389 35.7384ZM154.118 28.795C153.909 27.54 150.219 25.054 143.946 23.697C138.147 22.4425 106.851 15.7664 102.251 30.2282C97.6502 44.6893 110.617 45.7352 114.171 45.108C114.171 45.108 109.362 47.4081 112.498 57.8654C115.635 68.3222 133.133 67.0673 138.398 60.7929C143.662 54.5188 147.947 35.069 149.047 32.9778C150.143 30.8862 154.326 30.05 154.118 28.795Z" fill="#E29C40"/>
<path d="M97.6051 124.391C97.6051 124.391 93.8922 88.0429 83.273 64.0246C72.6538 40.0052 63.8224 30.9034 64.8248 29.639C65.8276 28.3745 73.4123 40.5107 77.7093 49.1073C82.0101 57.7039 97.2827 86.6549 101.276 124.391" fill="#8F5200"/>
<path d="M77.239 26.1624C69.7487 26.7313 68.7986 25.7832 68.609 23.8869C68.609 23.8869 69.7487 19.7151 76.0064 19.0514C82.2641 18.3877 84.4449 21.1373 84.4449 21.9906C84.4449 22.8439 84.7293 25.5936 77.239 26.1624ZM63.5839 10.9922C58.5587 10.8025 56.05 10.8025 56.1194 8.90626C56.1194 8.90626 56.6624 5.87221 63.015 6.15665C69.3675 6.4411 69.8435 7.86331 69.6539 8.90626C69.4623 9.94922 68.609 11.1818 63.5839 10.9922ZM61.782 48.5386C59.9806 54.9859 54.4817 55.6496 52.1114 54.2274C49.741 52.8052 48.4136 49.2971 51.4477 42.4705C54.4817 35.6438 58.8432 34.2216 58.8432 34.2216C62.0668 33.8424 63.5839 42.0912 61.782 48.5386ZM49.6868 31.6617C51.7181 27.9639 53.0595 29.0069 53.0595 29.0069C53.741 29.1263 55.7143 30.3343 54.1025 33.2735C52.4906 36.2127 51.4477 36.1179 50.9736 36.1179C50.4995 36.1179 47.6551 35.3594 49.6868 31.6617ZM47.3707 20.9897C46.8966 25.3937 45.3796 27.1106 44.3366 27.1106C43.2936 27.1106 40.544 25.4039 41.4922 19.9047C42.4403 14.4055 46.1381 14.8796 46.1381 14.8796C47.1617 14.7912 47.8447 16.5862 47.3707 20.9897ZM90.1603 16.1004C83.1137 -7.15298 43.3456 1.27258 40.8463 2.43879C38.3474 3.60538 36.6817 33.927 40.8463 46.7553C45.0113 59.5837 55.5076 64.0816 65.8367 54.9184C76.1657 45.7556 67.0139 34.2599 67.0139 34.2599C73.3554 40.757 96.8238 38.0916 90.1603 16.1004Z" fill="#E29C40"/>
<path d="M56.2832 124.391C56.2832 124.391 54.7502 110.738 50.4915 101.825C46.2329 92.9126 41.4508 87.0341 40.4287 87.603C39.4063 88.1719 42.4471 89.6889 45.0037 94.4296C47.5603 99.1703 52.7493 111.875 53.7577 124.391" fill="#8F5200"/>
<path d="M46.9977 96.6407C46.8715 98.2829 44.8485 100.054 39.0334 99.8644C33.2182 99.6748 31.0841 96.197 32.3964 94.3007C32.3964 94.3007 33.0286 90.6978 39.5389 91.1415C46.0496 91.5852 47.124 94.9985 46.9977 96.6407ZM30.3613 101.696C30.3613 101.696 28.6379 102.963 27.009 100.813C25.3801 98.6621 26.5179 97.5889 26.5179 97.5889C26.5179 97.5889 28.2242 96.5156 29.9942 98.2829C31.7642 100.054 30.3613 101.696 30.3613 101.696ZM23.0113 81.4287C23.0113 81.4287 19.8123 80.4923 22.4519 74.9548C25.0911 69.4177 27.9033 71.9325 27.9033 71.9325C29.2649 72.8473 29.8933 74.4508 27.7539 78.7409C25.6153 83.0292 23.0113 81.4287 23.0113 81.4287ZM14.6976 83.1126C14.6976 83.1126 12.1062 83.746 11.9165 80.7757C11.7269 77.8049 13.9391 78.1209 13.9391 78.1209C14.7113 78.0397 15.772 78.3738 16.0883 80.6406C16.4043 82.9078 14.6976 83.1126 14.6976 83.1126ZM9.25036 96.398C7.67037 96.4625 5.0152 95.5143 5.07854 89.5714C5.14187 83.6322 8.30222 84.4514 8.30222 84.4514C10.5778 84.3263 11.4626 86.287 11.8418 90.4095C12.2211 94.532 10.8307 96.3373 9.25036 96.398ZM53.7311 94.843C52.5209 80.6482 39.6861 84.569 39.6861 84.569C41.9897 65.8913 23.5608 64.5844 8.8051 76.0505C-5.95139 87.5158 2.64106 113.707 3.76177 114.83C4.88247 115.949 8.05796 114.083 11.7936 112.403C15.5289 110.719 54.9409 109.039 53.7311 94.843Z" fill="#E29C40"/>
<path d="M115.639 124.391C115.639 124.391 117.346 115.289 120.759 105.997C124.172 96.7051 128.989 90.8267 130.373 90.8267C131.758 90.8267 123.224 100.498 120.759 109.031C118.294 117.564 118.294 124.391 118.294 124.391" fill="#8F5200"/>
<path d="M148.066 87.8876C145.98 92.0594 142.805 93.785 141.713 93.0834C141.713 93.0834 137.352 91.4526 140.481 85.8282C143.609 80.2065 146.264 80.0169 147.497 80.6806C148.729 81.3443 150.152 83.7158 148.066 87.8876ZM147.402 100.024C146.264 102.679 144.865 101.954 144.865 101.954C144.865 101.954 142.377 101.541 143.37 98.3171C144.368 95.0935 146.359 95.9468 146.359 95.9468C146.359 95.9468 148.54 97.369 147.402 100.024ZM136.404 78.4998C136.972 75.0865 139.058 75.8451 139.058 75.8451C139.058 75.8451 141.239 75.7502 140.955 78.796C140.67 81.8422 138.964 81.8195 138.543 81.8195C138.125 81.8195 135.835 81.9143 136.404 78.4998ZM133.931 100.308C133.559 101.541 132.486 102.11 130.176 101.92C127.87 101.73 125.595 101.541 125.974 99.3601C125.974 99.3601 126.827 96.7053 129.767 96.9897C132.706 97.2742 134.306 99.0756 133.931 100.308ZM120.13 93.0075C113.743 92.5335 112.7 90.732 112.605 89.3098C112.605 89.3098 114.592 84.9483 120.52 85.9913C126.448 87.0342 128.284 89.0253 128.075 90.3527C127.87 91.6801 126.516 93.4816 120.13 93.0075ZM147.694 69.5904C135.349 66.5969 125.272 77.4478 130.593 87.3642C130.593 87.3642 121.859 74.2681 111.486 82.688C101.11 91.1075 109.723 103.642 121.04 107.196C132.353 110.749 146.2 115.24 147.694 112.809C149.192 110.377 160.043 72.5835 147.694 69.5904Z" fill="#E29C40"/>
<path d="M146.673 120.401H27.5245C27.5245 120.401 12.0478 198.266 86.7735 198.266C161.498 198.266 146.673 120.401 146.673 120.401Z" fill="#E77E3D"/>
<path d="M139.532 132.166C139.532 132.166 139.657 134.312 139.532 138.234C139.403 142.152 138.898 145.944 140.29 146.449C141.678 146.957 144.966 147.336 145.346 141.647C145.725 135.958 145.092 128.878 139.532 132.166Z" fill="#F8A065"/>
</svg>
