<svg width="189" height="199" viewBox="0 0 189 199" fill="none" xmlns="http://www.w3.org/2000/svg">
<path d="M88.9019 198.662C88.9019 198.662 188.875 208.483 187.63 95.3152C186.386 -17.8481 86.7303 1.20983 86.7303 1.20983C86.7303 1.20983 -1.09509 0.648961 0.0114963 101.314C1.11879 201.979 88.9019 198.662 88.9019 198.662Z" fill="#93C9BC"/>
<path d="M125.95 38.9796C147.999 47.2966 162.795 61.7957 162.795 61.7957C176.239 63.9192 178.706 23.5501 140.597 13.903C102.487 4.25941 89.4305 20.2677 89.7711 25.6849C90.1117 31.1078 103.901 30.6683 125.95 38.9796Z" fill="#84B1A6"/>
<path d="M19.6245 158.597C41.3667 195.264 65.1064 175.363 59.1212 164.179C59.1212 164.179 43.0925 148.118 34.1163 130.641C25.1378 113.158 24.5442 100.97 18.9036 102.385C13.2639 103.806 -2.11841 121.93 19.6245 158.597Z" fill="#84B1A6"/>
<path d="M114.401 181.402C117.295 188.386 125.566 188.81 124.649 185.568C124.649 185.568 122.332 182.859 120.705 178.94C119.078 175.028 119.746 171.943 117.985 171.793C116.225 171.636 111.508 174.426 114.401 181.402Z" fill="#BAE7DD"/>
<path d="M188.765 96.4324C188.765 68.1712 182.51 48.0591 173.117 33.7982C158.807 32.9133 144.699 38.6204 143.785 47.4966C142.409 60.8727 153.071 62.5875 153.071 62.5875C153.071 62.5875 118.679 66.7033 117.991 105.46C117.303 144.216 145.161 149.36 145.161 149.36C145.161 149.36 128.652 147.646 122.462 165.48C118.544 176.771 128.674 185.853 136.641 191.011C162.409 179.947 188.765 154.45 188.765 96.4324Z" fill="#B9E07C"/>
<path d="M-0.000217679 100.138C-0.000218504 109.58 0.7587 118.116 2.13324 125.843C15.8268 125.108 44.2596 119.804 49.5828 88.7755C55.8204 52.4288 36.887 44.9632 32.3664 43.7143C36.782 44.6955 55.3286 48.0578 57.9929 36.2831C59.8176 28.2205 55.7727 17.3034 48.0051 10.1123C24.8882 21.3724 -0.000212949 46.0404 -0.000217679 100.138Z" fill="#B9E07C"/>
<path d="M44.8892 115.542C44.6365 115.051 44.0335 114.858 43.5425 115.111C43.0514 115.364 42.8581 115.966 43.1108 116.458L44.8892 115.542ZM112.5 125.488C112.493 124.936 112.04 124.493 111.488 124.5L102.489 124.609C101.936 124.615 101.494 125.068 101.501 125.62C101.507 126.173 101.96 126.615 102.513 126.608L110.512 126.512L110.608 134.511C110.615 135.064 111.068 135.506 111.62 135.499C112.173 135.493 112.615 135.04 112.608 134.487L112.5 125.488ZM43.1108 116.458C47.5885 125.159 56.418 136.172 68.4077 140.722C74.4284 143.007 81.2325 143.655 88.6295 141.567C96.0147 139.482 103.927 134.689 112.216 126.199L110.784 124.801C102.673 133.111 95.0519 137.676 88.0861 139.642C81.1321 141.605 74.7674 140.997 69.1173 138.853C57.7654 134.544 49.2449 124.007 44.8892 115.542L43.1108 116.458Z" fill="white"/>
<circle cx="131.765" cy="96.8765" r="5" transform="rotate(-180 131.765 96.8765)" fill="white"/>
<circle cx="37" cy="82" r="5" transform="rotate(-180 37 82)" fill="white"/>
</svg>
