<svg width="223" height="186" viewBox="0 0 223 186" fill="none" xmlns="http://www.w3.org/2000/svg">
<path d="M132.746 66.1054C132.746 -0.413239 72.6343 0.305618 72.6343 0.305618C72.6343 0.305618 0 -8.37833 0 66.8055C0 127.431 43.6771 133.017 63.2906 132.471C62.2214 134.235 60.8187 136.29 59.5239 137.364C56.973 139.481 53.6851 140.75 54.0536 142.019C54.4008 143.215 72.1166 149.274 84.8321 130.225C102.4 126.552 132.746 113.37 132.746 66.1054Z" fill="#F9AF50"/>
<path d="M61.4413 91.7133C60.5425 90.8596 60.0725 89.7888 60.0311 88.4995C60.0725 87.2515 60.5225 86.2019 61.3786 85.3482C62.2348 84.4958 63.3103 84.069 64.6076 84.069C65.9852 84.069 67.1234 84.5058 68.0222 85.3794C68.9209 86.2531 69.391 87.3351 69.4324 88.6244C69.391 89.9136 68.9423 90.9644 68.0849 91.7757C67.2275 92.5869 66.152 93.0125 64.8583 93.0549C63.4782 93.0125 62.34 92.5657 61.4413 91.7133ZM62.7575 79.0456C62.1946 78.3179 61.9113 77.4543 61.9113 76.4559C62.162 73.5853 62.9969 71.0693 64.4184 68.9051C65.8386 66.7423 67.4894 64.8702 69.3697 63.2889C71.25 61.7089 72.7642 59.8568 73.9136 57.7351C75.0619 55.6134 75.6372 53.4093 75.6372 51.1204L75.4492 48.8115C75.2399 47.7719 74.6031 46.7622 73.5389 45.785C72.4721 44.8078 71.3966 44.3185 70.3098 44.3185C69.223 44.3185 68.4509 44.4958 67.9921 44.849C67.5321 45.2022 67.1761 45.921 66.9254 47.0018C66.8414 48.0003 66.8013 48.9575 66.8013 49.8724L66.988 51.37C66.988 52.9513 66.4352 54.1682 65.3284 55.0206C64.2203 55.873 63.0182 56.2998 61.7246 56.2998C60.0524 56.2998 58.6623 55.7282 57.5567 54.5838C56.4486 53.4405 55.8945 52.0976 55.8945 50.5588C55.8945 48.0215 56.5727 45.6814 57.9315 43.5385C59.289 41.3968 61.0339 39.6808 63.1649 38.3903C65.2958 37.1011 67.5321 36.4546 69.8724 36.4546C72.5035 36.4546 74.9691 37.2458 77.2668 38.8271C80.7766 41.3644 82.5315 45.7538 82.5315 51.994C82.4901 53.6165 82.2507 55.083 81.8107 56.3934C81.3732 57.7039 80.7553 59.1491 79.9631 60.7304C78.4576 63.3513 76.62 65.6602 74.4464 67.6571C73.0249 69.0711 71.7714 70.4964 70.6859 71.9317C69.5991 73.3669 68.9322 74.9794 68.6815 76.7679L68.5549 77.3295C68.5136 77.6627 68.4083 78.0159 68.2415 78.3903C67.5321 79.6796 66.528 80.3248 65.2344 80.3248C64.1463 80.2 63.3215 79.7744 62.7575 79.0456Z" fill="#F9F0E4"/>
<path d="M90.2539 108.226C90.2539 41.7082 150.366 42.4271 150.366 42.4271C150.366 42.4271 223 33.7444 223 108.928C223 169.552 179.324 175.139 159.711 174.592C160.779 176.357 162.181 178.412 163.476 179.486C166.027 181.602 169.315 182.872 168.948 184.14C168.599 185.336 150.885 191.395 138.169 172.347C120.6 168.674 90.2539 155.492 90.2539 108.226Z" fill="#F9F0E4"/>
<path d="M146.01 133.836C145.113 132.982 144.643 131.91 144.6 130.621C144.643 129.373 145.093 128.323 145.949 127.469C146.804 126.618 147.882 126.191 149.177 126.191C150.554 126.191 151.694 126.627 152.591 127.501C153.49 128.375 153.96 129.457 154.001 130.745C153.96 132.033 153.513 133.086 152.655 133.897C151.799 134.708 150.721 135.135 149.429 135.176C148.047 135.135 146.909 134.686 146.01 133.836ZM147.328 121.167C146.765 120.439 146.48 119.575 146.48 118.577C146.732 115.706 147.568 113.19 148.987 111.026C150.408 108.865 152.06 106.993 153.94 105.41C155.82 103.83 157.334 101.978 158.484 99.8562C159.633 97.7345 160.208 95.5305 160.208 93.2415L160.02 90.9326C159.809 89.8943 159.172 88.8846 158.108 87.9061C157.042 86.9301 155.966 86.4397 154.88 86.4397C153.793 86.4397 153.02 86.6181 152.562 86.9701C152.102 87.3245 151.746 88.0422 151.494 89.123C151.412 90.1214 151.37 91.0799 151.37 91.9935L151.558 93.4911C151.558 95.0724 151.006 96.2905 149.899 97.1417C148.789 97.9954 147.587 98.421 146.295 98.421C144.623 98.421 143.233 97.8506 142.126 96.7049C141.019 95.5617 140.465 94.22 140.465 92.6799C140.465 90.1439 141.144 87.8038 142.502 85.6596C143.859 83.518 145.604 81.8019 147.734 80.5114C149.866 79.2234 152.102 78.5769 154.443 78.5769C157.074 78.5769 159.539 79.3682 161.836 80.9482C165.347 83.4868 167.102 87.8749 167.102 94.1152C167.06 95.7376 166.821 97.2041 166.38 98.5146C165.942 99.825 165.326 101.271 164.532 102.852C163.028 105.472 161.19 107.783 159.015 109.778C157.596 111.192 156.343 112.619 155.255 114.053C154.168 115.488 153.503 117.102 153.251 118.889L153.125 119.451C153.084 119.785 152.979 120.137 152.812 120.511C152.102 121.801 151.098 122.447 149.803 122.447C148.717 122.321 147.891 121.896 147.328 121.167Z" fill="#100F0D"/>
</svg>
