<svg width="135" height="177" viewBox="0 0 135 177" fill="none" xmlns="http://www.w3.org/2000/svg">
<path d="M88.2558 14.9621C87.4207 8.07346 92.4215 5.36496 89.3535 1.90552C86.2949 -1.55392 47.8466 0.479748 45.3228 1.90552C42.7989 3.33037 46.5987 10.0466 45.3228 16.0119C44.0468 21.9772 32 23.8752 32 23.8752L33.2666 27C33.2666 27 44.1968 26.426 48.2687 20.8687C52.3312 15.3096 50.1358 8.82623 51.1772 7.19691C52.2186 5.56943 77.8415 4.34811 80.9657 4.75429C84.09 5.16231 82.2136 7.19688 84.2964 16.0119C86.3793 24.8269 95.7991 25.9235 95.7991 25.9235L97 23.8752C97 23.8752 89.0908 21.8526 88.2558 14.9621Z" fill="#A0CAB5"/>
<path d="M33.559 39.1012C32.1437 37.9492 21.874 46.9832 21.0666 48.3688C20.2683 49.7535 26.909 54.9 26.909 54.9C28.2426 55.9806 38.7936 47.972 38.9932 46.9502C39.1928 45.9275 34.9652 40.2532 33.559 39.1012Z" fill="#A0CAB5"/>
<path d="M4.63352 15.5099C2.07626 17.9916 8.0264 25.7083 8.94258 24.9475C8.94258 24.9475 12.9899 21.6501 12.9999 21.0113C13.0201 20.3726 7.19078 13.0292 4.63352 15.5099Z" fill="#A0CAB5"/>
<path d="M9.52805 21.8922C-10.9405 38.3015 7.63735 60.4587 9.62212 58.9244C9.62212 58.9244 45.7525 31.0978 45.9971 29.7539C46.251 28.4081 29.9872 5.48476 9.52805 21.8922Z" fill="#DE2A2F"/>
<path d="M7.54369 24C-9.70905 40.0306 7.76186 60.3905 9.69675 58.9252C9.69675 58.9252 12.7034 56.6491 17 53.3764C7.60062 40.6213 6.89873 29.8973 7.54369 24Z" fill="#CE272F"/>
<path d="M101.441 37.1077C102.856 35.8827 113.126 45.4824 113.933 46.9527C114.732 48.4258 108.091 53.894 108.091 53.894C106.757 55.0403 96.2064 46.533 96.0068 45.4464C95.8072 44.3598 100.035 38.3307 101.441 37.1077Z" fill="#A0CAB5"/>
<path d="M130.366 14.4592C132.924 16.6917 126.974 23.6374 126.057 22.9527C126.057 22.9527 122.01 19.9842 122 19.4094C121.99 18.8355 127.809 12.2257 130.366 14.4592Z" fill="#A0CAB5"/>
<path d="M125.679 19.892C145.703 36.301 127.529 58.4587 125.587 56.9245C125.587 56.9245 90.2421 29.0992 90.0029 27.7535C89.7544 26.4087 105.665 3.48482 125.679 19.892Z" fill="#DE2A2F"/>
<path d="M28.5721 154C28.5721 154 37.0764 156.707 37.9574 158.284C38.8385 159.861 25.7713 178.147 23.6012 176.943C21.4218 175.739 25.6508 154.473 28.5721 154Z" fill="#799C8F"/>
<path d="M46.9837 153.934C46.7354 152.458 27.2007 145.021 27.2007 145.021C25.8304 144.496 20.8455 153.961 32.7925 159.343C44.7395 164.723 47.232 155.409 46.9837 153.934Z" fill="#E3F5ED"/>
<path d="M102.434 154C102.434 154 93.9233 156.707 93.0425 158.284C92.1618 159.861 105.225 178.147 107.403 176.943C109.573 175.739 105.345 154.473 102.434 154Z" fill="#799C8F"/>
<path d="M83.017 153.934C83.2861 152.458 103.704 145.021 103.704 145.021C105.126 144.496 110.346 153.961 97.859 159.343C85.3721 164.723 82.7574 155.409 83.017 153.934Z" fill="#E3F5ED"/>
<path d="M73.1736 37.161C73.1736 37.161 6 30.7104 6 99.4797C6 168.249 73.1736 156.186 73.1736 156.186C73.1736 156.186 127 158.581 127 97.0005C127 35.4204 73.1736 37.161 73.1736 37.161Z" fill="#799C8F"/>
<path d="M15.6084 98.8411C17.8206 57.9455 48.9611 42.3378 64.9063 37C46.6551 37.9468 6 46.0455 6 99.4262C6 168.259 73.6055 156.186 73.6055 156.186C73.6055 156.186 84.1887 156.65 96 151.849C63.6315 156.038 13.3211 141.019 15.6084 98.8411Z" fill="#68887D"/>
<path d="M71.1839 55.1126C71.1839 55.1126 24 50.5979 24 98.736C24 146.875 71.1839 138.43 71.1839 138.43C71.1839 138.43 109 140.107 109 96.9996C109 53.8942 71.1839 55.1126 71.1839 55.1126Z" fill="#E3F5ED"/>
<path d="M69.3812 57.3759C69.3812 57.3759 66.3965 56.5302 65.5339 57.3759C64.6713 58.2216 64.9905 66.4369 65.5339 67.4034C66.0687 68.3699 68.924 68.0075 69.3812 67.4034C69.8471 66.7993 70.5027 57.6214 69.3812 57.3759Z" fill="#8DA49A"/>
<path d="M69.3812 125.376C69.3812 125.376 66.3965 124.53 65.5339 125.376C64.6713 126.222 64.9905 134.437 65.5339 135.403C66.0687 136.37 68.924 136.007 69.3812 135.403C69.8471 134.799 70.5027 125.621 69.3812 125.376Z" fill="#8DA49A"/>
<path d="M106.66 94.6387C105.887 93.604 98.4194 93.992 97.5409 94.6387C96.6623 95.2854 96.9962 98.7053 97.5409 99.2589C98.0944 99.8124 106.432 100.605 106.66 99.2589C106.66 99.2589 107.425 95.6735 106.66 94.6387Z" fill="#8DA49A"/>
<path d="M28.595 94.6387C27.6285 95.2854 27.9958 98.7053 28.595 99.2589C29.2038 99.8124 38.3751 100.605 38.6263 99.2589C38.6263 99.2589 39.4671 95.6735 38.6263 94.6387C37.7759 93.604 29.5614 93.992 28.595 94.6387Z" fill="#8DA49A"/>
<path d="M67.894 99.5111C67.894 99.5111 65.1893 99.9863 65.1893 97.2829C65.1893 94.5794 67.894 94.8346 67.894 94.8346C67.894 94.8346 70.0691 94.7653 70.0691 97.1858C70.0691 99.6064 67.894 99.5111 67.894 99.5111ZM92.7851 76.3375C91.7731 75.1235 87.1865 77.5487 87.177 77.8917C87.177 78.011 87.5742 78.4844 88.0849 79.053C84.3209 81.6344 73.6628 90.1914 70.3717 93.0428C69.2747 92.4594 68.1683 92.4936 68.1683 92.4936C68.1683 92.4936 63.3168 92.0442 62.7588 96.5663C59.3259 96.3028 49.8877 96.4887 47.3343 96.7115C47.3059 95.7582 47.2681 94.9576 47.2681 94.9576C46.9655 94.6469 42.0667 95.8452 42.0005 97.4123C41.9437 98.9785 47.0317 100.121 47.2681 99.8671C47.3248 99.8005 47.3532 99.4316 47.3627 98.9296C49.9823 99.1487 59.5812 99.1635 62.8912 98.9665C63.8275 102.688 68.1683 101.938 68.1683 101.938C68.1683 101.938 72.5469 102.128 72.5469 97.2413C72.5469 96.1549 72.3293 95.3283 71.9889 94.683C75.7433 91.9961 86.4677 83.6102 89.7304 80.7967C90.1749 81.2535 90.4964 81.578 90.4964 81.578C90.9314 81.6215 93.797 77.5524 92.7851 76.3375Z" fill="#8DA49A"/>
</svg>
