<svg width="255" height="172" viewBox="0 0 255 172" fill="none" xmlns="http://www.w3.org/2000/svg">
<path d="M117.494 74.4102C77.4336 49.8477 63.545 106.832 63.545 106.832C63.545 106.832 33.126 51.5097 6.1514 85.3941C-20.8233 119.278 64.9271 171.837 64.9271 171.837C64.9271 171.837 153.453 96.4581 117.494 74.4102Z" fill="#B5A7BE"/>
<ellipse cx="103.513" cy="99.2299" rx="12" ry="20" transform="rotate(25.8211 103.513 99.2299)" fill="white" fill-opacity="0.24"/>
<path d="M241.487 6.14585C201.431 -18.4153 187.547 38.5705 187.547 38.5705C187.547 38.5705 157.112 -16.7531 130.154 17.1315C103.184 51.016 188.928 103.572 188.928 103.572C188.928 103.572 277.447 28.1957 241.487 6.14585Z" fill="#F9AF50"/>
<path d="M253.386 24.1847C253.386 24.1847 251.972 34.5242 241.405 51.7883C230.827 69.0523 220.967 76.1393 222.84 77.4116C224.724 78.6827 233.89 68.5858 243.278 51.7883C252.679 34.9907 256.755 25.3639 253.386 24.1847Z" fill="#F68F39"/>
</svg>
