<svg width="209" height="163" viewBox="0 0 209 163" fill="none" xmlns="http://www.w3.org/2000/svg">
<path d="M89.1099 27.1378C82.6359 23.7722 26.8731 37.9833 26.8731 37.9833C26.8731 37.9833 28.4841 69.1887 26.1546 76.3585C23.8252 83.5283 -12.7349 136.5 5.41656 153.858C23.568 171.207 100.334 101.332 103.737 92.1654C107.14 82.9989 95.5915 30.5034 89.1099 27.1378Z" fill="#87D6C8"/>
<path d="M81.6297 106.513C78.7935 103.82 68.5833 113.554 61.0202 119.982C53.4571 126.411 41.5452 137.136 41.5452 137.136C40.978 143.33 45.7049 140.781 65.1799 126.6C84.6549 112.419 84.4658 109.205 81.6297 106.513Z" fill="#76C0B1"/>
<path d="M27.3195 50.6819L27.2969 50.3415L27.312 50.334C27.3196 50.4474 27.3195 50.5684 27.3195 50.6819Z" fill="#ABA39A"/>
<path d="M27.9241 60.2642C28.1888 56.112 28.2115 53.238 27.4779 53.2153L27.3191 50.6817C27.3191 50.5683 27.3191 50.4473 27.3115 50.3338L93.2013 34.4588L95.4248 39.8513C95.4248 39.8513 84.9046 44.1623 66.5489 49.2901C48.2311 54.4028 27.9997 60.2415 27.9241 60.2642Z" fill="#59938E"/>
<path d="M27.9242 60.2642L27.478 53.2153C28.2116 53.238 28.1889 56.112 27.9242 60.2642Z" fill="#44726D"/>
<path d="M103.737 92.1652C105.627 87.0753 102.905 68.6288 99.0022 52.648C90.1231 55.1589 76.3809 61.9431 75.7002 79.9584C75.2011 93.2241 83.0894 101.521 91.1593 106.512C98.2005 99.6905 102.95 94.2905 103.737 92.1652Z" fill="#448076"/>
<path d="M28.0534 128.113C21.6701 120.655 12.6095 118.265 5.4775 117.668C-0.0133123 132 -2.47887 146.302 5.41701 153.857C11.5583 159.726 24.4231 155.604 38.8762 147.232C36.8342 141.446 33.4913 134.45 28.0534 128.113Z" fill="#448076"/>
<path d="M94.1094 12.8209C93.0959 8.03343 93.1035 2.48966 91.3337 0.977039C89.5715 -0.535583 64.1065 2.73925 51.756 4.50146C39.3978 6.27122 20.9968 9.03932 18.9774 10.5519C16.9656 12.0646 20.2405 49.6305 23.7724 52.6558C23.7724 52.6558 47.4676 47.6112 61.3308 44.8431C75.2016 42.0674 94.3589 37.7791 96.1211 36.2665C97.8909 34.7539 95.1153 17.6083 94.1094 12.8209Z" fill="#448076"/>
<path d="M24.7559 11.6409C24.7559 11.6409 25.1113 13.5317 26.4273 29.2251C27.7433 44.9186 28.6887 49.6455 30.3904 49.2674C32.0921 48.8892 30.7685 43.595 29.2559 28.2797C27.7433 12.9644 26.8811 9.75013 24.7559 11.6409Z" fill="#38685F"/>
<path d="M38.3467 8.80465C38.3467 8.80465 39.587 22.6073 40.7517 31.3049C41.924 40.0025 41.6593 45.6748 44.1551 45.6748C46.651 45.6748 42.9526 35.4646 42.0601 27.2435C41.1677 19.0148 40.6383 6.34663 38.3467 8.80465Z" fill="#38685F"/>
<path d="M54.0234 5.59056C54.0234 5.59056 56.3075 19.7714 57.5327 28.2799C58.7503 36.7884 57.9941 41.8935 61.0193 41.7044C64.0446 41.5153 58.9545 27.5236 57.5327 19.3932C56.1032 11.2629 56.4814 3.69978 54.0234 5.59056Z" fill="#38685F"/>
<path d="M69.5229 5.29543C69.5229 5.29543 70.8541 14.477 72.5558 24.3091C74.2575 34.1411 74.6357 38.8681 76.7155 38.3008C78.7954 37.7336 74.2499 25.4435 73.123 19.0149C71.9886 12.5863 71.6028 3.10969 69.5229 5.29543Z" fill="#38685F"/>
<path d="M88.2483 19.045C86.5466 11.6407 85.5332 1.24142 83.0146 3.69944C83.0146 3.69944 84.845 12.0189 86.6374 21.6618C88.4374 31.3048 89.0046 34.8973 90.8954 34.33C92.7862 33.7628 89.95 26.4493 88.2483 19.045Z" fill="#38685F"/>
<path d="M193.749 33.4539C187.273 30.0885 131.515 44.2996 131.515 44.2996C131.515 44.2996 133.124 75.5049 130.798 82.6741C128.464 89.8517 91.9046 142.816 110.058 160.173C128.212 177.53 204.976 107.648 208.378 98.4816C211.78 89.3148 200.232 36.8192 193.749 33.4539Z" fill="#F89E9D"/>
<path d="M184 114C181.164 111.308 174.219 117.869 166.656 124.298C159.093 130.727 147.181 141.459 147.181 141.459C145 143.5 146.5 150 170.816 130.916C184 121.5 186.836 116.692 184 114Z" fill="#F68287"/>
<path d="M154.123 92.0748C156.959 87.9151 151.098 85.8352 147.634 83.3772C144.163 80.9192 134.648 75.625 134.648 75.625C130.489 77.3267 132.758 86.5915 139.564 92.0748C146.371 97.558 151.287 96.2345 154.123 92.0748Z" fill="#F68287"/>
<path d="M131.857 53.0264L131.547 45.675L131.577 45.6675C131.653 47.1725 131.759 49.812 131.857 53.0264ZM194.396 33.9295C194.177 33.7178 193.965 33.5589 193.753 33.453C193.504 33.3245 193.179 33.2186 192.785 33.1354L193.769 32.9388L194.396 33.9295Z" fill="#ABA39A"/>
<path d="M131.857 53.0339V53.0264C131.758 49.812 131.652 47.1725 131.577 45.6675L192.785 33.1354C193.178 33.2186 193.503 33.3245 193.753 33.453C193.965 33.5589 194.177 33.7178 194.396 33.9295L195.25 35.2833C195.25 35.2833 182.597 39.8136 163.712 43.9733C144.835 48.133 131.857 53.0339 131.857 53.0339Z" fill="#B16E6C"/>
<path d="M208.386 98.48C210.276 93.3901 207.556 74.9437 203.647 58.9626C194.764 61.4736 181.028 68.2654 180.35 86.273C179.848 99.5465 187.74 107.835 195.808 112.827C202.848 106.013 207.601 100.605 208.386 98.48Z" fill="#F2564E"/>
<path d="M132.697 134.428C126.306 126.978 117.253 124.581 110.121 123.983C104.622 138.315 102.157 152.617 110.06 160.173C116.202 166.042 129.059 161.92 143.52 153.548C141.477 147.762 138.127 140.766 132.697 134.428Z" fill="#F2564E"/>
<path d="M199.48 18.2441C196.459 13.532 185.368 16.5573 184.104 23.1143C184.104 23.1143 182.347 14.7873 172.513 15.9297C162.678 17.0645 162.928 25.0812 162.928 25.0812C162.928 25.0812 156.592 15.9221 145.394 18.2516C134.19 20.5887 137.036 31.1393 137.036 31.1393C137.036 31.1393 130.162 22.3815 122.849 29.1732C115.535 35.9717 124.984 48.4741 129.397 47.3846C129.397 47.3846 151.08 41.9466 165.2 39.0878C179.319 36.2216 195.959 35.0943 197.474 32.7579C198.98 30.4208 202.508 22.9485 199.48 18.2441Z" fill="#F2564E"/>
<path d="M137.498 29.7018C134.851 29.6035 138.443 34.3304 140.568 37.7338C142.694 41.1372 142.323 43.4061 143.722 42.8389C145.114 42.2717 143.268 40.6683 141.347 36.8868C139.434 33.1052 137.498 29.7018 137.498 29.7018Z" fill="#F0413D"/>
<path d="M163.779 23.462C161.609 22.6074 162.834 28.6579 163.121 32.9386C163.401 37.2118 162.743 38.4899 164.112 38.2101C165.481 37.9227 164.725 36.221 164.445 32.9386C164.158 29.6487 163.779 23.462 163.779 23.462Z" fill="#F0413D"/>
<path d="M184.767 22.8949C182.975 21.5714 183.443 26.5782 183.443 29.0891C183.443 31.6001 182.218 35.0867 183.443 35.2757C184.676 35.4648 184.389 32.4396 184.389 29.6942C184.389 26.9563 184.767 22.8949 184.767 22.8949Z" fill="#F0413D"/>
</svg>
