<svg width="218" height="174" viewBox="0 0 218 174" fill="none" xmlns="http://www.w3.org/2000/svg">
<path d="M186.386 77.3276C186.386 77.3276 207.144 53.8905 179.168 26.1578C151.193 -1.57483 122.633 20.3103 120.067 34.7863C120.067 34.7863 93.253 -17.9746 56.4512 6.59116C19.6498 31.1569 27.8877 66.007 36.2089 78.3147C36.2089 78.3147 -10.0001 80.5094 1.98471 126.309C1.98471 126.309 205.188 133.449 213.546 126.309C221.902 119.174 218.365 78.9388 186.386 77.3276Z" fill="#448076"/>
<path d="M158.4 29.6606C158.4 29.6606 164.365 35.1226 168.591 40.0879C172.816 45.0532 176.296 49.636 179.03 46.8482C181.764 44.0604 183.255 37.8535 174.805 29.6606C166.354 21.4676 158.4 22.4608 158.4 29.6606Z" fill="#60B29B"/>
<path d="M71.8375 65.2942C71.8375 65.2942 76.0572 63.51 83.4264 61.1905C90.7956 58.8711 96.0863 58.6927 96.2752 56.7301C96.4642 54.7674 92.8741 50.4854 81.9148 54.589C70.9555 58.6927 68.374 63.1532 71.8375 65.2942Z" fill="#2F4B37"/>
<path d="M156.962 65.2942C156.962 65.2942 152.743 63.51 145.373 61.1905C138.004 58.8711 132.714 58.6927 132.525 56.7301C132.336 54.7674 135.926 50.4854 146.885 54.589C157.844 58.6927 160.426 63.1532 156.962 65.2942Z" fill="#2F4B37"/>
<path d="M97.5262 73.5804C97.5262 76.6605 93.2791 82.8207 82.5646 82.3677C71.8501 81.9148 71.5605 74.5769 71.5605 74.5769C69.823 74.3957 69.5334 78.0194 74.2764 81.5524C79.0193 85.0854 91.381 85.0249 95.8853 79.0159C100.219 73.2355 97.5262 73.5804 97.5262 73.5804Z" fill="#253829"/>
<path d="M154.177 74.5769C154.177 74.5769 153.898 81.9148 143.58 82.3677C133.262 82.8207 129.172 76.6605 129.172 73.5804C129.172 73.5804 126.58 73.2355 130.753 79.0159C135.09 85.0249 146.994 85.0854 151.561 81.5524C156.129 78.0194 155.85 74.3957 154.177 74.5769Z" fill="#253829"/>
<path d="M114.604 90.2486C103.451 89.4645 93.8697 93.1586 96.8239 95.2883C96.8239 95.2883 100.664 92.04 111.682 91.479C122.699 90.9214 125.358 95.7351 126.118 95.2883C126.878 94.8382 125.757 91.0323 114.604 90.2486Z" fill="#253829"/>
<path d="M53.2091 146.072C53.2091 146.072 45.3008 159.782 53.2091 160.517C61.1178 161.251 57.8012 145.337 53.2091 146.072Z" fill="#448076"/>
<path d="M71.8445 159.531C71.8445 159.531 63.936 173.241 71.8445 173.975C79.753 174.71 76.4364 158.796 71.8445 159.531Z" fill="#448076"/>
<path d="M91.5149 141.932C91.5149 141.932 83.6064 156.622 91.5149 157.409C99.4234 158.196 96.1068 141.146 91.5149 141.932Z" fill="#448076"/>
<path d="M106.605 159.531C106.605 159.531 99.6849 173.241 106.605 173.975C113.525 174.71 110.623 158.796 106.605 159.531Z" fill="#448076"/>
<path d="M129.821 141.932C129.821 141.932 121.912 156.622 129.821 157.409C137.729 158.196 134.413 141.146 129.821 141.932Z" fill="#448076"/>
<path d="M144.315 159.531C144.315 159.531 136.406 173.241 144.315 173.975C152.223 174.71 148.907 158.796 144.315 159.531Z" fill="#448076"/>
<path d="M167.092 141.932C167.092 141.932 159.183 156.622 167.092 157.409C175 158.196 171.684 141.146 167.092 141.932Z" fill="#448076"/>
</svg>
