<svg width="68" height="79" viewBox="0 0 68 79" fill="none" xmlns="http://www.w3.org/2000/svg">
<path d="M21.499 57.4634C20.6728 44.1876 16.0212 43.0671 16.0212 43.0671C16.0212 43.0671 12.7333 42.7389 12.207 57.4804C-1.65739 58.1425 0.0685887 61.6907 0.0685887 61.6907C0.0685887 61.6907 -0.242653 65.8726 12.2636 66.7158C12.9653 80.2067 16.4456 78.509 16.4456 78.509C16.4456 78.509 20.5483 78.8202 21.4537 66.7158C34.4071 65.833 35.5106 61.2549 35.5106 61.2549C35.5106 61.2549 35.8218 58.0406 21.499 57.4634" fill="#FFB800"/>
<path d="M58.1615 10.1082C57.5814 0.786902 54.3153 0.000191524 54.3153 0.000191524C54.3153 0.000191524 52.0068 -0.230261 51.6373 10.1202C41.9027 10.585 43.1146 13.0763 43.1146 13.0763C43.1146 13.0763 42.896 16.0126 51.677 16.6046C52.1697 26.0769 54.6133 24.8849 54.6133 24.8849C54.6133 24.8849 57.4939 25.1034 58.1297 16.6046C67.2246 15.9847 67.9994 12.7703 67.9994 12.7703C67.9994 12.7703 68.2179 10.5135 58.1615 10.1082" fill="#FFB800"/>
</svg>
