<svg width="90" height="104" viewBox="0 0 90 104" fill="none" xmlns="http://www.w3.org/2000/svg">
<path d="M28.4546 76.0547C27.3611 58.4838 21.2045 57.0008 21.2045 57.0008C21.2045 57.0008 16.8529 56.5664 16.1564 76.0772C-2.1936 76.9535 0.0907791 81.6496 0.0907791 81.6496C0.0907791 81.6496 -0.321159 87.1845 16.2313 88.3005C17.16 106.156 21.7662 103.909 21.7662 103.909C21.7662 103.909 27.1963 104.321 28.3947 88.3005C45.5388 87.1321 46.9993 81.0729 46.9993 81.0729C46.9993 81.0729 47.4112 76.8187 28.4546 76.0547" fill="#FFB800"/>
<path d="M76.9788 13.3789C76.211 1.04179 71.8882 0.000552741 71.8882 0.000552741C71.8882 0.000552741 68.8329 -0.304458 68.3438 13.3946C55.4598 14.0099 57.0637 17.3072 57.0637 17.3072C57.0637 17.3072 56.7745 21.1934 68.3964 21.9769C69.0485 34.5138 72.2827 32.9362 72.2827 32.9362C72.2827 32.9362 76.0953 33.2254 76.9367 21.9769C88.974 21.1566 89.9995 16.9022 89.9995 16.9022C89.9995 16.9022 90.2887 13.9153 76.9788 13.3789" fill="#FFB800"/>
</svg>
