<svg width="48" height="48" viewBox="0 0 48 48" fill="none" xmlns="http://www.w3.org/2000/svg">
<rect width="48" height="48" rx="12" fill="url(#paint0_linear_24_68)"/>
<path fill-rule="evenodd" clip-rule="evenodd" d="M11.4784 22.2787L32.0565 14.0757C32.8397 13.7635 33.6492 14.4647 33.4771 15.3064L29.9638 32.4889C29.799 33.2952 28.8745 33.6573 28.2253 33.1699L22.9206 29.1868L20.217 32.0106C19.7425 32.5062 18.9229 32.3056 18.719 31.644L16.7675 25.3096L11.5384 23.7301C10.8523 23.5228 10.8119 22.5444 11.4784 22.2787ZM19.9194 26.535L29.4778 17.8886C29.7067 17.6817 29.4409 17.3161 29.1813 17.4809L17.8939 24.6421C17.6951 24.7682 17.6047 25.0157 17.6741 25.2442L19.1882 30.2349C19.22 30.3398 19.3693 30.3254 19.3813 30.2162L19.7493 26.8698C19.7635 26.7405 19.8242 26.6212 19.9194 26.535Z" fill="white"/>
<defs>
<linearGradient id="paint0_linear_24_68" x1="24" y1="0" x2="24" y2="102.5" gradientUnits="userSpaceOnUse">
<stop stop-color="#51A3DB"/>
<stop offset="1" stop-color="#3780B7"/>
</linearGradient>
</defs>
</svg>
