<svg width="291" height="122" viewBox="0 0 291 122" fill="none" xmlns="http://www.w3.org/2000/svg">
<path d="M199.339 4.54565L100.969 0.645571C91.9809 0.289231 84.3948 7.45627 84.0328 16.653L81.8206 72.8605C81.4585 82.0605 88.4578 89.8025 97.4457 90.1589L126.52 91.3116C131.167 100.055 141.768 119.254 145.299 119.394C149.016 119.542 162.119 100.227 166.937 92.914L195.816 94.059C204.807 94.4154 212.39 87.2515 212.752 78.0516L214.965 21.844C215.327 12.6473 208.331 4.90211 199.339 4.54565Z" fill="#FFDE2F"/>
<path d="M172.015 34.1546C163.889 23.7989 149.302 40.2566 149.302 40.2566C149.302 40.2566 137.189 21.3084 126.767 35.8373C116.893 49.5918 147.53 67.8785 147.53 67.8785C147.53 67.8785 184.952 50.655 172.015 34.1546Z" fill="#448076"/>
<path d="M63.4165 19.8254C41.2375 16.7327 32.7939 3.01123 32.7939 3.01123" stroke="#FFDE2F" stroke-width="4" stroke-linecap="round"/>
<path d="M234.207 72.4443C256.117 77.0829 263.586 91.3623 263.586 91.3623" stroke="#FFDE2F" stroke-width="4" stroke-linecap="round"/>
<path d="M60.5529 43.8715C35.7747 37.6765 1.9998 48.2506 1.9998 48.2506" stroke="#FFDE2F" stroke-width="4" stroke-linecap="round"/>
<path d="M34.7212 88.0984C42.9377 72.6174 59.4625 65.3201 59.4625 65.3201" stroke="#FFDE2F" stroke-width="4" stroke-linecap="round"/>
<path d="M235.319 46.3638C264.765 54.261 288.084 50.0685 288.084 50.0685" stroke="#FFDE2F" stroke-width="4" stroke-linecap="round"/>
<path d="M236.872 24.0925C256.62 23.2096 275.019 10.919 275.019 10.919" stroke="#FFDE2F" stroke-width="4" stroke-linecap="round"/>
</svg>
