<svg width="48" height="48" viewBox="0 0 48 48" fill="none" xmlns="http://www.w3.org/2000/svg">
<rect width="48" height="48" rx="12" fill="#2D79F6"/>
<path d="M25.2828 33C15.4253 33 9.8048 26.2554 9.57422 15.0144H14.5318C14.6903 23.2578 18.322 26.7454 21.2043 27.466V15.0144H25.8592V22.1193C28.6983 21.8167 31.6959 18.5741 32.7047 15H37.3452C36.9668 16.8501 36.211 18.6023 35.1249 20.1471C34.0388 21.6919 32.6458 22.9962 31.033 23.9784C32.8329 24.8742 34.4224 26.1415 35.6968 27.6965C36.9711 29.2516 37.9013 31.0592 38.4261 33H33.31C32.2147 29.5845 29.4765 26.9327 25.8592 26.5725V33H25.2972H25.2828Z" fill="white"/>
</svg>
