<svg width="48" height="48" viewBox="0 0 48 48" fill="none" xmlns="http://www.w3.org/2000/svg">
<rect width="48" height="48" rx="12" fill="#33765F"/>
<g clip-path="url(#clip0_24_76)">
<path d="M11.2999 36.8438L13.175 31.2189L13.392 30.5679L13.0413 29.978C11.7785 27.854 11.0517 25.3768 11.0517 22.7241C11.0517 14.8684 17.4202 8.5 25.2759 8.5C33.1316 8.5 39.5 14.8684 39.5 22.7241C39.5 30.5798 33.1316 36.9483 25.2759 36.9483C22.8845 36.9483 20.6353 36.3561 18.6589 35.3153L18.1426 35.0434L17.5783 35.1919L11.2999 36.8438Z" stroke="white" stroke-width="3"/>
<path d="M32.9712 26.6378C32.419 25.5944 30.3829 24.4011 30.3829 24.4011C29.9222 24.1385 29.3663 24.1091 29.1037 24.5773C29.1037 24.5773 28.442 25.3707 28.2738 25.4849C27.5051 26.0055 26.7931 25.9854 26.0744 25.2667L24.4041 23.5964L22.7339 21.9261C22.0152 21.2074 21.995 20.4954 22.5157 19.7268C22.6298 19.5585 23.4232 18.8969 23.4232 18.8969C23.8914 18.6338 23.8621 18.0783 23.5994 17.6176C23.5994 17.6176 22.4062 15.5815 21.3627 15.0294C20.9188 14.7944 20.3738 14.8766 20.0189 15.2316L19.2813 15.9692C16.9414 18.3091 18.0935 20.9506 20.4334 23.2905L22.5719 25.4291L24.7104 27.5676C27.0503 29.9075 29.6919 31.0596 32.0318 28.7197L32.7694 27.9821C33.1243 27.6263 33.2061 27.0813 32.9712 26.6378Z" fill="white"/>
</g>
<defs>
<clipPath id="clip0_24_76">
<rect width="32" height="32" fill="white" transform="translate(9 7)"/>
</clipPath>
</defs>
</svg>
